<svg width="1109" height="222" viewBox="0 0 1109 222" fill="none" xmlns="http://www.w3.org/2000/svg">
<path d="M1109 0L1109 254L-2.00001 254L-2 -4.85634e-05L1109 0Z" fill="black" fill-opacity="0.46"/>
<path d="M375.628 196.915C459.263 266.275 408.914 350.042 373.285 383.255L-17.494 442.103L-63.9996 133.284C47.695 125.594 291.993 127.555 375.628 196.915Z" fill="white" fill-opacity="0.12"/>
<path d="M592 241.261V434.863L618.693 582H1133V147.713C1070.92 144.409 913.31 135.756 779.472 127.578C645.634 119.401 598.725 199.96 592 241.261Z" fill="white" fill-opacity="0.14"/>
<path d="M699.878 167.073C537.109 273.039 153.472 83.9654 -18.0004 -23.8169L407.213 -481.876L902.96 -51.6958C903.086 -22.925 862.647 61.1081 699.878 167.073Z" fill="white" fill-opacity="0.07"/>
</svg>
