<svg viewBox="0 0 1440 211" fill="none" xmlns="http://www.w3.org/2000/svg">
<path d="M-40.0648 166.228C-87.0707 100.621 -62.035 36.5803 -43.6414 12.7606L396.954 0C410.181 56.8271 410.34 165.479 305.156 145.471C173.676 120.46 126.5 243.302 60.2485 284.816C-6.00258 326.331 -15.0291 174.735 -40.0648 166.228Z" fill="white" fill-opacity="0.11"/>
<path d="M892 191.261V384.863L918.693 532H1433V97.713C1370.92 94.4089 1213.31 85.7562 1079.47 77.5784C945.634 69.4007 898.725 149.96 892 191.261Z" fill="white" fill-opacity="0.14"/>
<path d="M388.627 129.915C472.262 199.275 421.913 283.042 386.284 316.255L-4.49454 375.103L-51.0001 66.2837C60.6945 58.5939 304.992 60.5545 388.627 129.915Z" fill="white" fill-opacity="0.12"/>
<path d="M920.878 115.073C758.109 221.039 374.472 31.9654 203 -75.8169L628.214 -533.876L1123.96 -103.696C1124.09 -74.925 1083.65 9.10805 920.878 115.073Z" fill="white" fill-opacity="0.07"/>
<path d="M787.5 127.5C1000.7 105.5 1314.33 165.333 1444.5 198V239L-3.9999 229.5V101.424C-4.02992 100.789 -4.03004 100.148 -3.9999 99.5V101.424C-0.0449698 185.041 523.008 154.793 787.5 127.5Z" fill="#5F5F5F"/>
<path d="M0 143.19C240.484 165.793 761.466 211 921.52 211C1081.57 211 1266.75 159.096 1339.34 133.144C1376.89 117.238 1452 92.0566 1452 118.578V211H921.52H0V143.19Z" fill="white"/>
</svg>
