<svg viewBox="0 0 1440 908" fill="none" xmlns="http://www.w3.org/2000/svg">
<g clip-path="url(#clip0)">
<path d="M569 69C521.8 257.4 112 379.833 -87 417.5V-207.5L569 -229.5C588.667 -208.5 616.2 -119.4 569 69Z" fill="white" fill-opacity="0.07"/>
<path d="M612 595.5V908L655 1145.5H1483.5V444.5C1383.5 439.167 1129.6 425.2 914 412C698.4 398.8 622.833 528.833 612 595.5Z" fill="white" fill-opacity="0.14"/>
<path d="M368.179 606.35C522.566 734.388 429.623 889.019 363.853 950.33L-357.513 1058.96L-443.361 488.889C-237.176 474.694 213.791 478.313 368.179 606.35Z" fill="white" fill-opacity="0.12"/>
<path d="M209.5 351C71.5 158.2 145 -30 199 -100L1492.5 -137.5C1531.33 29.5 1531.8 348.8 1223 290C837 216.5 698.5 577.5 504 699.5C309.5 821.5 283 376 209.5 351Z" fill="white" fill-opacity="0.11"/>
<path d="M-1.5 798.5V904.5H1446.5L2715 1482C2387.17 1042.67 1643.2 258.2 1290 635C936.8 1011.8 281.833 901 -1.5 798.5Z" fill="#5F5F5F"/>
<path d="M700 793C281.2 794.6 58.8333 848.333 0 875V908.25H1526.5V546C1425.5 627.667 1118.8 791.4 700 793Z" fill="white"/>
</g>
<defs>
<clipPath id="clip0">
<rect width="1440" height="908" fill="white"/>
</clipPath>
</defs>
</svg>
