<svg width="22" height="21" viewBox="0 0 22 21" fill="none" xmlns="http://www.w3.org/2000/svg">
<path d="M2.2 0C0.979 0 0 0.983684 0 2.21053V13.2632C0 13.8494 0.231785 14.4117 0.644365 14.8262C1.05694 15.2408 1.61652 15.4737 2.2 15.4737H11V21L14.3 17.6842L17.6 21V15.4737H19.8C20.3835 15.4737 20.9431 15.2408 21.3556 14.8262C21.7682 14.4117 22 13.8494 22 13.2632V5.52632V3.31579V2.21053C22 1.62426 21.7682 1.062 21.3556 0.647448C20.9431 0.232894 20.3835 0 19.8 0H15.4H2.2ZM11 2.21053L14.3 4.42105L17.6 2.21053V6.07895L20.9 7.73684L17.6 9.39474V13.2632L14.3 11.0526L11 13.2632V9.39474L7.7 7.73684L11 6.07895V2.21053ZM2.2 2.21053H7.7V4.42105H2.2V2.21053ZM2.2 6.63158H5.5V8.8421H2.2V6.63158ZM2.2 11.0526H7.7V13.2632H2.2V11.0526Z" fill="#686B6F"/>
</svg>
