<svg width="22" height="22" viewBox="0 0 22 22" fill="none" xmlns="http://www.w3.org/2000/svg">
<path d="M11 0C4.917 0 0 4.917 0 11C0 17.083 4.917 22 11 22C13.9174 22 16.7153 20.8411 18.7782 18.7782C20.8411 16.7153 22 13.9174 22 11C22 4.917 17.05 0 11 0ZM11 19.8C8.66609 19.8 6.42778 18.8729 4.77746 17.2225C3.12714 15.5722 2.2 13.3339 2.2 11C2.2 8.66609 3.12714 6.42778 4.77746 4.77746C6.42778 3.12714 8.66609 2.2 11 2.2C13.3339 2.2 15.5722 3.12714 17.2225 4.77746C18.8729 6.42778 19.8 8.66609 19.8 11C19.8 13.3339 18.8729 15.5722 17.2225 17.2225C15.5722 18.8729 13.3339 19.8 11 19.8ZM12.1 8.734L13.266 9.9L14.432 8.734L15.598 9.9L16.764 8.734L14.432 6.402L12.1 8.734ZM7.568 8.734L8.734 9.9L9.9 8.734L7.568 6.402L5.236 8.734L6.402 9.9L7.568 8.734ZM11 17.05C13.563 17.05 15.741 15.444 16.621 13.2H5.379C6.259 15.444 8.437 17.05 11 17.05Z" fill="#686B6F"/>
</svg>
