<svg viewBox="0 0 665 393" fill="none" xmlns="http://www.w3.org/2000/svg">
<path opacity="0.06" d="M658.831 66.2984C691.661 186.371 585.49 334.13 528.3 393C468.144 388.298 310.848 375.057 162.913 359.709C14.9786 344.362 18.8682 157.707 39.3048 66.2984C232.134 16.2681 626 -53.7744 658.831 66.2984Z" fill="url(#paint0_linear)" fill-opacity="0.54"/>
<path opacity="0.04" d="M132.833 22.8705C-8.83149 -27.9114 -9.63499 186.854 7.67127 300.584H622.352C518.206 229.172 274.497 73.6525 132.833 22.8705Z" fill="url(#paint1_linear)"/>
<rect x="4.89001" y="291.249" width="633.224" height="9.33492" fill="url(#paint2_linear)"/>
<rect x="274.682" y="282.848" width="217.873" height="137.223" rx="4" transform="rotate(-180 274.682 282.848)" fill="url(#paint3_linear)"/>
<rect x="266.338" y="270.713" width="200.258" height="116.686" rx="2" transform="rotate(-180 266.338 270.713)" fill="url(#paint4_linear)"/>
<rect x="30.8492" y="279.114" width="267.011" height="12.1354" rx="3" fill="#434343"/>
<rect x="70.7155" y="158.694" width="190.987" height="106.418" fill="#F2F2F2"/>
<rect x="75.3511" y="158.694" width="181.716" height="10.2684" fill="#DADADA"/>
<rect x="75.3511" y="173.629" width="56.5544" height="86.8147" fill="#DADADA"/>
<rect x="136.541" y="173.629" width="120.526" height="86.8147" fill="#DADADA"/>
<ellipse cx="197.267" cy="217.037" rx="28.2772" ry="28.4715" fill="#A1FB93"/>
<rect width="4.14027" height="11.7475" rx="2.07013" transform="matrix(0.804143 -0.594436 0.58917 0.808009 188.46 219.031)" fill="white"/>
<rect width="4.17352" height="24.0745" rx="2" transform="matrix(0.864536 0.50257 -0.497434 0.867502 205.071 205.368)" fill="white"/>
<rect width="6.82728" height="42.6183" transform="matrix(0.998471 0.0552691 -0.0545196 0.998513 398.434 222.346)" fill="#A79676"/>
<rect width="4.09637" height="1.37478" transform="matrix(0.998471 0.0552691 -0.0545196 0.998513 398.283 225.092)" fill="#6F6450"/>
<rect width="1.36546" height="1.37478" transform="matrix(0.998471 0.0552691 -0.0545196 0.998513 398.133 227.837)" fill="#6F6450"/>
<rect width="4.09637" height="1.37478" transform="matrix(0.998471 0.0552691 -0.0545196 0.998513 397.984 230.582)" fill="#6F6450"/>
<rect width="1.36546" height="1.37478" transform="matrix(0.998471 0.0552691 -0.0545196 0.998513 397.833 233.328)" fill="#6F6450"/>
<rect width="4.09637" height="1.37478" transform="matrix(0.998471 0.0552691 -0.0545196 0.998513 397.684 236.074)" fill="#6F6450"/>
<rect width="1.36546" height="1.37478" transform="matrix(0.998471 0.0552691 -0.0545196 0.998513 397.534 238.819)" fill="#6F6450"/>
<rect width="4.09637" height="1.37478" transform="matrix(0.998471 0.0552691 -0.0545196 0.998513 397.384 241.563)" fill="#6F6450"/>
<rect width="1.36546" height="1.37478" transform="matrix(0.998471 0.0552691 -0.0545196 0.998513 397.234 244.308)" fill="#6F6450"/>
<rect width="4.09637" height="1.37478" transform="matrix(0.998471 0.0552691 -0.0545196 0.998513 397.084 247.054)" fill="#6F6450"/>
<rect width="1.36546" height="1.37478" transform="matrix(0.998471 0.0552691 -0.0545196 0.998513 396.934 249.8)" fill="#6F6450"/>
<rect width="4.09637" height="1.37478" transform="matrix(0.998471 0.0552691 -0.0545196 0.998513 396.784 252.546)" fill="#6F6450"/>
<rect width="1.36546" height="1.37478" transform="matrix(0.998471 0.0552691 -0.0545196 0.998513 396.634 255.292)" fill="#6F6450"/>
<rect width="2.28198" height="11.195" transform="matrix(0.953088 -0.302693 0.298946 0.95427 392.218 250.151)" fill="#66C59D"/>
<path d="M389.645 261.71C389.645 258.949 391.884 256.71 394.645 256.71H408.75C411.512 256.71 413.75 258.949 413.75 261.71V291.249H389.645V261.71Z" fill="#9E00FF"/>
<path d="M392.621 247.606L394.394 249.469L392.218 250.155L392.621 247.606Z" fill="#C4C4C4"/>
<path d="M392.602 247.548L393.634 248.676L392.392 249.067L392.602 247.548Z" fill="#5B5B5B"/>
<rect x="565.798" y="291.249" width="102.91" height="13.0689" transform="rotate(-180 565.798 291.249)" fill="#930303"/>
<rect x="462.888" y="280.047" width="102.91" height="9.33492" fill="url(#paint5_linear)"/>
<rect x="462.888" y="280.981" width="102.91" height="0.933492" fill="#C4C4C4"/>
<rect x="462.888" y="282.848" width="102.91" height="0.933492" fill="#C4C4C4"/>
<rect x="462.888" y="284.715" width="102.91" height="0.933492" fill="#C4C4C4"/>
<rect x="462.888" y="286.582" width="102.91" height="0.933492" fill="#C4C4C4"/>
<rect x="462.888" y="288.449" width="102.91" height="0.933492" fill="#C4C4C4"/>
<defs>
<linearGradient id="paint0_linear" x1="346.998" y1="0" x2="346.998" y2="393" gradientUnits="userSpaceOnUse">
<stop stop-color="#00E0FF"/>
<stop offset="1" stop-color="#00B2FF"/>
</linearGradient>
<linearGradient id="paint1_linear" x1="311.176" y1="15.2299" x2="311.176" y2="300.584" gradientUnits="userSpaceOnUse">
<stop stop-color="#00E0FF"/>
<stop offset="1" stop-color="#00B2FF"/>
</linearGradient>
<linearGradient id="paint2_linear" x1="321.502" y1="291.249" x2="321.502" y2="300.584" gradientUnits="userSpaceOnUse">
<stop stop-color="#00B2FF"/>
<stop offset="1" stop-color="#00E0FF"/>
</linearGradient>
<linearGradient id="paint3_linear" x1="383.619" y1="282.848" x2="383.619" y2="420.071" gradientUnits="userSpaceOnUse">
<stop stop-color="#5E5E5E"/>
<stop offset="1" stop-color="#464646"/>
</linearGradient>
<linearGradient id="paint4_linear" x1="366.467" y1="270.713" x2="366.467" y2="387.399" gradientUnits="userSpaceOnUse">
<stop stop-color="#F5F5F5"/>
<stop offset="1" stop-color="#F9F9F9"/>
</linearGradient>
<linearGradient id="paint5_linear" x1="514.343" y1="280.047" x2="514.343" y2="289.382" gradientUnits="userSpaceOnUse">
<stop stop-color="#EEEEEE"/>
<stop offset="1" stop-color="white"/>
</linearGradient>
</defs>
</svg>
