<svg viewBox="0 0 730 401" fill="none" xmlns="http://www.w3.org/2000/svg">
<rect x="131.691" y="121.525" width="469.667" height="264" fill="#E4AA74"/>
<path d="M104.576 161.025C1.15285 168.225 -6.30372 323.692 2.89595 400.525H500.646V294.525C499.032 247.025 479.342 142.225 413.492 103.025C347.641 63.8251 271.462 91.3584 241.603 110.025C239.021 124.025 208 153.825 104.576 161.025Z" fill="#0897FF" fill-opacity="0.03"/>
<path d="M276.465 397.025C119.974 409.025 60.5149 182.692 50.3468 68.0251C65.4536 -55.1749 158.645 16.6918 203.352 68.0251C238.375 97.8584 355.679 144.025 544.708 90.0251C733.737 36.0251 742.259 219.192 722.891 317.525C639.287 339.025 432.956 385.025 276.465 397.025Z" fill="#00C2FF" fill-opacity="0.03"/>
<rect x="173.332" y="188.525" width="100.712" height="151" fill="white"/>
<rect x="218.846" y="203.525" width="44.5458" height="3" fill="#C4C4C4"/>
<rect x="218.846" y="209.525" width="44.5458" height="3" fill="#C4C4C4"/>
<rect x="218.846" y="215.525" width="44.5458" height="3" fill="#C4C4C4"/>
<rect x="183.984" y="241.525" width="79.4076" height="3" fill="#C4C4C4"/>
<rect x="183.984" y="250.525" width="79.4076" height="3" fill="#C4C4C4"/>
<rect x="183.984" y="260.525" width="79.4076" height="3" fill="#C4C4C4"/>
<rect x="183.984" y="270.525" width="79.4076" height="3" fill="#C4C4C4"/>
<rect x="183.984" y="280.525" width="79.4076" height="3" fill="#C4C4C4"/>
<rect x="183.984" y="290.525" width="79.4076" height="3" fill="#C4C4C4"/>
<rect x="325.368" y="159.525" width="156.879" height="104" rx="4" fill="#EAEAEA"/>
<rect width="11.8118" height="11.8118" transform="matrix(0.69566 0.718371 -0.69566 0.718371 403.808 203.04)" fill="#C4C4C4"/>
<rect width="21.4511" height="34.7726" rx="10.7256" transform="matrix(0.883769 0.467924 -0.444715 0.895672 528.919 210.434)" fill="#E5E5E5"/>
<rect width="2.92515" height="10.9285" rx="1.46258" transform="matrix(0.883769 0.467924 -0.444715 0.895672 531.483 214.039)" fill="#C4C4C4"/>
<rect width="2.92515" height="10.9285" rx="1.46258" transform="matrix(0.883769 0.467924 -0.444715 0.895672 540.961 219.057)" fill="#C4C4C4"/>
<ellipse cx="414.429" cy="316.493" rx="18.3681" ry="18.9677" fill="#DE4D4D"/>
<ellipse cx="414.429" cy="316.493" rx="13.7761" ry="14.2258" fill="#565656"/>
<rect x="432.797" y="313.332" width="10.7147" height="4.74194" fill="#DE4D4D"/>
</svg>
