<svg viewBox="0 0 675 423" fill="none" xmlns="http://www.w3.org/2000/svg">
<path opacity="0.1" d="M268.339 30.2422C54.2432 -84.8994 0.719155 156.353 0.719155 291.372C-17.3003 437.666 307.789 358.182 472.586 300.153C493.71 258.158 482.435 145.384 268.339 30.2422Z" fill="url(#paint0_linear)"/>
<path opacity="0.1" d="M329.336 166.14C418.518 9.76756 541.6 -1.83821 591.993 11.9055C721.031 50.0824 675.219 337.173 613.372 381.076C551.526 424.979 248.02 419.253 220.914 404.364C193.808 389.475 217.86 361.606 329.336 166.14Z" fill="url(#paint1_linear)"/>
<path d="M0 422.412C69.3544 368.694 290.907 293.49 622.281 422.412C623.502 423.477 207.936 422.856 0 422.412Z" fill="#EEFFC0"/>
<g filter="url(#filter0_d)">
<rect x="274.11" y="226.007" width="18.3249" height="44.2852" rx="9.16245" fill="#DEDEDE"/>
<rect x="206.919" y="268.002" width="154.235" height="86.2798" fill="url(#paint2_linear)"/>
<rect x="386.35" y="371.079" width="8.39893" height="206.155" transform="rotate(90 386.35 371.079)" fill="#E9E9E9"/>
<rect x="378.715" y="362.681" width="8.39892" height="190.121" transform="rotate(90 378.715 362.681)" fill="#EEEEEE"/>
<rect x="371.079" y="354.282" width="8.39892" height="174.087" transform="rotate(90 371.079 354.282)" fill="#F1F1F1"/>
<rect x="206.919" y="281.745" width="6.87184" height="72.5361" fill="#C4C4C4"/>
<rect x="221.426" y="281.745" width="6.87184" height="72.5361" fill="#C4C4C4"/>
<rect x="250.44" y="292.435" width="32.0686" height="61.8466" fill="url(#paint3_linear)"/>
<rect x="284.8" y="292.435" width="32.0686" height="61.8466" fill="url(#paint4_linear)"/>
<rect x="354.281" y="281.745" width="6.87184" height="72.5361" fill="#C4C4C4"/>
<rect x="339.774" y="281.745" width="6.87184" height="72.5361" fill="#C4C4C4"/>
<rect x="206.919" y="263.421" width="154.235" height="4.58123" fill="#CECECE"/>
<rect x="211.5" y="263.421" width="18.3249" height="4.58123" transform="rotate(90 211.5 263.421)" fill="#CECECE"/>
<rect x="361.153" y="263.421" width="18.3249" height="4.58123" transform="rotate(90 361.153 263.421)" fill="#CECECE"/>
<rect x="206.919" y="277.164" width="154.235" height="4.58123" fill="#CECECE"/>
<path d="M283.654 198.52L286.63 227.725H280.679L283.654 198.52Z" fill="#DEDEDE"/>
</g>
<g filter="url(#filter1_d)">
<rect x="397.64" y="166.617" width="22.5953" height="34.7968" transform="rotate(30 397.64 166.617)" fill="#F8F8F8"/>
<rect x="403.599" y="175.275" width="10.8457" height="0.903812" transform="rotate(30 403.599 175.275)" fill="#C4C4C4"/>
<rect x="402.696" y="176.841" width="10.8457" height="0.903812" transform="rotate(30 402.696 176.841)" fill="#C4C4C4"/>
<rect x="393.662" y="178.931" width="17.6243" height="0.903812" transform="rotate(30 393.662 178.931)" fill="#C4C4C4"/>
<rect x="392.758" y="180.496" width="17.6243" height="0.903812" transform="rotate(30 392.758 180.496)" fill="#C4C4C4"/>
<rect x="391.854" y="182.061" width="17.6243" height="0.903812" transform="rotate(30 391.854 182.061)" fill="#C4C4C4"/>
<rect x="390.95" y="183.627" width="17.6243" height="0.903812" transform="rotate(30 390.95 183.627)" fill="#C4C4C4"/>
<rect x="390.047" y="185.192" width="17.6243" height="0.903812" transform="rotate(30 390.047 185.192)" fill="#C4C4C4"/>
<rect x="389.143" y="186.758" width="17.6243" height="0.903812" transform="rotate(30 389.143 186.758)" fill="#C4C4C4"/>
<rect x="388.239" y="188.323" width="17.6243" height="0.903812" transform="rotate(30 388.239 188.323)" fill="#C4C4C4"/>
<rect x="387.335" y="189.889" width="17.6243" height="0.903812" transform="rotate(30 387.335 189.889)" fill="#C4C4C4"/>
<rect x="386.431" y="191.454" width="17.6243" height="0.903812" transform="rotate(30 386.431 191.454)" fill="#C4C4C4"/>
<rect x="385.528" y="193.02" width="17.6243" height="0.903812" transform="rotate(30 385.528 193.02)" fill="#C4C4C4"/>
</g>
<g filter="url(#filter2_d)">
<rect x="191.924" y="202.909" width="30.5415" height="6.1083" transform="rotate(-19.728 191.924 202.909)" fill="#3F3F3F"/>
<path d="M202.792 186.845L238.048 188.194L176.427 210.291L202.792 186.845Z" fill="url(#paint5_linear)"/>
<rect x="180.424" y="207.033" width="0.763538" height="12.9801" transform="rotate(-19.728 180.424 207.033)" fill="url(#paint6_linear)"/>
</g>
<g filter="url(#filter3_d)">
<rect x="277.164" y="157.289" width="14.5072" height="13.7437" fill="#C4C4C4"/>
<path d="M278.691 171.032H290.144V179.05C290.144 182.212 287.581 184.776 284.418 184.776C281.255 184.776 278.691 182.212 278.691 179.05V171.032Z" fill="#EDEDED"/>
<circle cx="284.036" cy="160.343" r="12.9801" fill="url(#paint7_linear)"/>
<rect x="278.691" y="174.85" width="11.4531" height="0.763538" fill="#C4C4C4"/>
<rect x="278.691" y="176.377" width="11.4531" height="0.763538" fill="#C4C4C4"/>
<rect x="283.273" y="184.013" width="2.29061" height="0.763538" fill="#343434"/>
</g>
<defs>
<filter id="filter0_d" x="178.195" y="198.52" width="208.155" height="182.958" filterUnits="userSpaceOnUse" color-interpolation-filters="sRGB">
<feFlood flood-opacity="0" result="BackgroundImageFix"/>
<feColorMatrix in="SourceAlpha" type="matrix" values="0 0 0 0 0 0 0 0 0 0 0 0 0 0 0 0 0 0 127 0"/>
<feOffset dx="-2" dy="2"/>
<feColorMatrix type="matrix" values="0 0 0 0 0 0 0 0 0 0 0 0 0 0 0 0 0 0 0.12 0"/>
<feBlend mode="normal" in2="BackgroundImageFix" result="effect1_dropShadow"/>
<feBlend mode="normal" in="SourceGraphic" in2="effect1_dropShadow" result="shape"/>
</filter>
<filter id="filter1_d" x="380.242" y="166.617" width="36.9665" height="43.4325" filterUnits="userSpaceOnUse" color-interpolation-filters="sRGB">
<feFlood flood-opacity="0" result="BackgroundImageFix"/>
<feColorMatrix in="SourceAlpha" type="matrix" values="0 0 0 0 0 0 0 0 0 0 0 0 0 0 0 0 0 0 127 0"/>
<feOffset dy="2"/>
<feColorMatrix type="matrix" values="0 0 0 0 0 0 0 0 0 0 0 0 0 0 0 0 0 0 0.11 0"/>
<feBlend mode="normal" in2="BackgroundImageFix" result="effect1_dropShadow"/>
<feBlend mode="normal" in="SourceGraphic" in2="effect1_dropShadow" result="shape"/>
</filter>
<filter id="filter2_d" x="170.981" y="175.796" width="67.0667" height="45.4551" filterUnits="userSpaceOnUse" color-interpolation-filters="sRGB">
<feFlood flood-opacity="0" result="BackgroundImageFix"/>
<feColorMatrix in="SourceAlpha" type="matrix" values="0 0 0 0 0 0 0 0 0 0 0 0 0 0 0 0 0 0 127 0"/>
<feOffset dx="-1" dy="2"/>
<feColorMatrix type="matrix" values="0 0 0 0 0 0 0 0 0 0 0 0 0 0 0 0 0 0 0.15 0"/>
<feBlend mode="normal" in2="BackgroundImageFix" result="effect1_dropShadow"/>
<feBlend mode="normal" in="SourceGraphic" in2="effect1_dropShadow" result="shape"/>
</filter>
<filter id="filter3_d" x="271.056" y="147.363" width="25.9603" height="38.4134" filterUnits="userSpaceOnUse" color-interpolation-filters="sRGB">
<feFlood flood-opacity="0" result="BackgroundImageFix"/>
<feColorMatrix in="SourceAlpha" type="matrix" values="0 0 0 0 0 0 0 0 0 0 0 0 0 0 0 0 0 0 127 0"/>
<feOffset dy="1"/>
<feColorMatrix type="matrix" values="0 0 0 0 0 0 0 0 0 0 0 0 0 0 0 0 0 0 0.06 0"/>
<feBlend mode="normal" in2="BackgroundImageFix" result="effect1_dropShadow"/>
<feBlend mode="normal" in="SourceGraphic" in2="effect1_dropShadow" result="shape"/>
</filter>
<linearGradient id="paint0_linear" x1="240.015" y1="0" x2="240.015" y2="374.538" gradientUnits="userSpaceOnUse">
<stop stop-color="#00A3FF"/>
<stop offset="1" stop-color="#00E0FF"/>
</linearGradient>
<linearGradient id="paint1_linear" x1="442.645" y1="7.63538" x2="442.645" y2="415.277" gradientUnits="userSpaceOnUse">
<stop stop-color="#00A3FF"/>
<stop offset="1" stop-color="#00E0FF"/>
</linearGradient>
<linearGradient id="paint2_linear" x1="284.036" y1="268.002" x2="284.036" y2="354.281" gradientUnits="userSpaceOnUse">
<stop stop-color="#F1F1F1"/>
<stop offset="1" stop-color="white"/>
</linearGradient>
<linearGradient id="paint3_linear" x1="250.44" y1="325.267" x2="282.509" y2="323.74" gradientUnits="userSpaceOnUse">
<stop stop-color="#C4C4C4"/>
<stop offset="1" stop-color="#C0C0C0"/>
</linearGradient>
<linearGradient id="paint4_linear" x1="284.8" y1="325.267" x2="316.868" y2="323.74" gradientUnits="userSpaceOnUse">
<stop stop-color="#C0C0C0"/>
<stop offset="0.574586" stop-color="#C4C4C4"/>
</linearGradient>
<linearGradient id="paint5_linear" x1="202.792" y1="186.845" x2="208.72" y2="203.375" gradientUnits="userSpaceOnUse">
<stop stop-color="#585858"/>
<stop offset="1" stop-color="#272727"/>
</linearGradient>
<linearGradient id="paint6_linear" x1="180.806" y1="207.033" x2="180.806" y2="220.013" gradientUnits="userSpaceOnUse">
<stop stop-color="#FFF970"/>
<stop offset="1" stop-color="#F5EC99"/>
</linearGradient>
<linearGradient id="paint7_linear" x1="290.145" y1="149.272" x2="284.036" y2="173.323" gradientUnits="userSpaceOnUse">
<stop stop-color="#FEFFBB"/>
<stop offset="0.18232" stop-color="#FFF500"/>
</linearGradient>
</defs>
</svg>
